<svg id="Layer_1" data-name="Layer 1" xmlns="http://www.w3.org/2000/svg" width="1429.5839" height="1670.5962" viewBox="0 0 1429.5839 1670.5962"><defs><style>path{fill:#f8f7f5;}</style></defs><path d="M1964.6429,1090.6548q-20.4767,1.99-41.0712,2.0832a445.9524,445.9524,0,0,1-373.1548-201.6666v686.7262c0,280.3173-227.2422,507.56-507.56,507.56s-507.56-227.2422-507.56-507.56,227.2422-507.56,507.56-507.56h0c10.5952,0,20.9523.9524,31.3692,1.6072v250.119c-10.4167-1.25-20.6548-3.1546-31.3692-3.1546-143.0681,0-259.0476,115.98-259.0476,259.0476s115.98,259.0477,259.0476,259.0477c143.0952,0,269.4644-112.7381,269.4644-255.8334l2.5-1166.31h239.2858c22.5638,214.58,195.5855,382.1857,410.7738,397.9167v277.9761" transform="translate(-535.2969 -414.761)"/></svg>